<svg fill="none" height="39" viewBox="0 0 170 39" width="170" xmlns="http://www.w3.org/2000/svg"><g fill="#fff"><path d="m167.598 15.502c-.629 0-1.155-.1954-1.58-.5862-.408-.4078-.612-.909-.612-1.5037s.204-1.0874.612-1.4782c.425-.4078.951-.6117 1.58-.6117s1.147.2039 1.555.6117c.425.3908.637.8835.637 1.4782s-.212 1.0959-.637 1.5037c-.408.3908-.926.5862-1.555.5862zm1.759 1.6822v14.1196h-3.568v-14.1196z"/><path d="m159.053 19.3762c.458-.7476 1.053-1.3338 1.784-1.7586.747-.4248 1.597-.6372 2.548-.6372v3.7466h-.943c-1.121 0-1.971.2633-2.548.79-.561.5268-.841 1.4443-.841 2.7526v7.0344h-3.569v-14.1197h3.569z"/><path d="m137.293 24.193c0-1.4272.28-2.6931.841-3.7975.578-1.1044 1.351-1.954 2.319-2.5487.986-.5947 2.082-.892 3.288-.892 1.054 0 1.971.2124 2.753.6371.798.4248 1.435.96 1.911 1.6057v-2.0134h3.594v14.1196h-3.594v-2.0644c-.459.6626-1.096 1.2148-1.911 1.6566-.799.4248-1.725.6372-2.778.6372-1.19 0-2.277-.3059-3.263-.9175-.968-.6117-1.741-1.4698-2.319-2.5742-.561-1.1214-.841-2.4042-.841-3.8485zm11.112.051c0-.8666-.17-1.6057-.51-2.2174-.339-.6286-.798-1.1044-1.376-1.4272-.578-.3398-1.198-.5098-1.86-.5098-.663 0-1.275.1615-1.835.4843-.561.3228-1.02.7986-1.377 1.4272-.34.6117-.509 1.3423-.509 2.1919s.169 1.5972.509 2.2428c.357.6287.816 1.113 1.377 1.4528.577.3398 1.189.5097 1.835.5097.662 0 1.282-.1614 1.86-.4842.578-.3399 1.037-.8156 1.376-1.4273.34-.6287.51-1.3763.51-2.2428z"/><path d="m135.9 20.1153h-2.472v11.1887h-3.619v-11.1887h-1.606v-2.931h1.606v-.7136c0-1.7331.493-3.0074 1.478-3.823.986-.8156 2.472-1.1979 4.46-1.1469v3.0074c-.866-.017-1.47.1274-1.809.4333-.34.3058-.51.858-.51 1.6566v.5862h2.472z"/><path d="m111.234 24.193c0-1.4272.281-2.6931.841-3.7975.578-1.1044 1.351-1.954 2.32-2.5487.985-.5947 2.081-.892 3.288-.892 1.053 0 1.97.2124 2.752.6371.799.4248 1.436.96 1.912 1.6057v-2.0134h3.593v14.1196h-3.593v-2.0644c-.459.6626-1.096 1.2148-1.912 1.6566-.798.4248-1.725.6372-2.778.6372-1.189 0-2.277-.3059-3.262-.9175-.969-.6117-1.742-1.4698-2.32-2.5742-.56-1.1214-.841-2.4042-.841-3.8485zm11.113.051c0-.8666-.17-1.6057-.51-2.2174-.34-.6286-.799-1.1044-1.376-1.4272-.578-.3398-1.198-.5098-1.861-.5098s-1.274.1615-1.835.4843-1.019.7986-1.376 1.4272c-.34.6117-.51 1.3423-.51 2.1919s.17 1.5972.51 2.2428c.357.6287.815 1.113 1.376 1.4528.578.3398 1.189.5097 1.835.5097.663 0 1.283-.1614 1.861-.4842.577-.3399 1.036-.8156 1.376-1.4273.34-.6287.51-1.3763.51-2.2428z"/><path d="m102.765 31.4822c-1.24 0-2.362-.2124-3.3641-.6371-.9855-.4248-1.7671-1.0365-2.3448-1.8351s-.875-1.7416-.892-2.829h3.823c.0509.7306.3059 1.3083.7649 1.7331.475.4248 1.121.6372 1.937.6372.832 0 1.486-.1954 1.962-.5862.476-.4078.714-.9346.714-1.5802 0-.5267-.162-.96-.484-1.2998-.323-.3399-.731-.6032-1.224-.7901-.476-.2039-1.138-.4248-1.988-.6627-1.155-.3398-2.0982-.6711-2.8288-.994-.7137-.3398-1.3338-.841-1.8606-1.5037-.5097-.6796-.7646-1.5802-.7646-2.7016 0-1.0534.2634-1.971.7901-2.7525.5268-.7816 1.2659-1.3763 2.2174-1.7841.9515-.4248 2.0385-.6372 3.2625-.6372 1.835 0 3.322.4503 4.46 1.3508 1.155.8836 1.793 2.1239 1.911 3.7211h-3.924c-.034-.6117-.298-1.1129-.791-1.5037-.475-.4078-1.113-.6117-1.911-.6117-.697 0-1.257.1784-1.682.5352-.408.3568-.6119.875-.6119 1.5547 0 .4757.1529.875.4589 1.1979.323.3058.713.5607 1.172.7646.476.1869 1.139.4078 1.988.6626 1.156.3398 2.099.6797 2.829 1.0195.731.3398 1.36.8496 1.886 1.5292.527.6796.79 1.5717.79 2.6761 0 .9515-.246 1.8351-.739 2.6506-.493.8156-1.215 1.4698-2.166 1.9625-.952.4758-2.082.7136-3.39.7136z"/><path d="m86.6383 31.5332c-1.3593 0-2.5826-.2974-3.6701-.892-1.0874-.6117-1.9454-1.4698-2.5741-2.5742-.6117-1.1044-.9175-2.3788-.9175-3.823 0-1.4443.3143-2.7186.943-3.823.6456-1.1045 1.5207-1.954 2.6251-2.5487 1.1044-.6117 2.3363-.9175 3.6956-.9175s2.5911.3058 3.6956.9175c1.1044.5947 1.9709 1.4442 2.5996 2.5487.6457 1.1044.9685 2.3787.9685 3.823 0 1.4442-.3313 2.7186-.994 3.823-.6456 1.1044-1.5292 1.9625-2.6506 2.5742-1.1044.5946-2.3448.892-3.7211.892zm0-3.1094c.6457 0 1.2489-.1529 1.8096-.4588.5777-.3228 1.0365-.7985 1.3763-1.4272s.5097-1.3933.5097-2.2938c0-1.3423-.3568-2.3703-1.0704-3.0839-.6967-.7306-1.5547-1.0959-2.5742-1.0959s-1.8775.3653-2.5741 1.0959c-.6797.7136-1.0195 1.7416-1.0195 3.0839s.3313 2.3787.994 3.1094c.6796.7136 1.5292 1.0704 2.5486 1.0704z"/><path d="m77.7658 23.9381c0 .5098-.0339.9685-.1019 1.3763h-10.3221c.0849 1.0195.4417 1.8181 1.0704 2.3958s1.4018.8665 2.3193.8665c1.3253 0 2.2683-.5692 2.829-1.7076h3.8485c-.4078 1.3593-1.1893 2.4807-2.3447 3.3643-1.1554.8665-2.5742 1.2998-4.2563 1.2998-1.3593 0-2.5827-.2974-3.6701-.892-1.0705-.6117-1.9115-1.4698-2.5232-2.5742-.5947-1.1044-.892-2.3788-.892-3.823 0-1.4613.2973-2.7441.892-3.8485s1.4272-1.954 2.4977-2.5487c1.0704-.5947 2.3023-.892 3.6956-.892 1.3423 0 2.5401.2888 3.5936.8665 1.0704.5777 1.8945 1.4018 2.4722 2.4722.5947 1.0535.892 2.2684.892 3.6446zm-3.6955-1.0194c-.017-.9176-.3483-1.6482-.994-2.1919-.6457-.5607-1.4358-.8411-2.3703-.8411-.8835 0-1.6311.2719-2.2428.8156-.5947.5267-.96 1.2659-1.0959 2.2174z"/><path clip-rule="evenodd" d="m55.9287.396481c.9073-.587656 1.8218-.4090771 2.751-.181641.4347.106319.8804.274259 1.3125.151367.3552-.101237.6568.051932.956.136719.6029.170465 1.1061.672464 1.7686.717774.2424.01621.5129.09864.7646.25781.1864.11792.365.28348.5782.36426.7835.2965 1.5511.63973 2.3691.81738 1.0022.21754 1.9562.64006 2.8799 1.13477.342.18302.6768.42891.7978.86719-1.0545.15146-2.1201-.32712-3.1689.19043.3908.20518.8095.1319 1.1895.29199.129.05385.2621.19842.4033.1289.328-.16119.6123.04273.8301.21582.4485.35594.9553.3844 1.4482.50098.7983.18841 1.494.57853 2.0234 1.31152.0515.07226.0493.20069.0596.30469-.0013.01196-.1017.06267-.1221.04492-.1975-.17084-.4072-.02485-.6084-.03515-.4406-.02288-.8819-.03184-1.3203-.06055-.4682-.03048-.9616-.02609-1.4424.00977-.056.00403-.092-.01274-.0888-.08497.0092-.20994-.1424-.17262-.2432-.21386-.4776-.19558-.8523.21292-1.2852.27929.4954-.01525.9341.2143 1.3487.46192.3029.18066.6217.23486.9228.21875.9006-.04845 1.7373.05727 2.5352.63281.497.35882.9106.79202 1.3086 1.26563.0945.1125.2311.1895.2676.3906-.3643-.1256-.6795.2702-1.0469.0742-.1318-.07-.3237.0794-.4317-.1474-.0305-.0645-.1043-.0358-.1572.0117-.4221.3816-.9099.5148-1.4345.5068-.1618-.0027-.2648.0929-.3907.2198-.4679.4714-.9822.8385-1.6513.5771-.311-.1215-.6393-.1904-.9297.0322-.2874.2207-.594.2593-.919.2588-.1832-.0004-.361.0283-.4502.2569-.1125.2889-.2432.5708-.331.8691-.052.178-.0882.3687-.2539.4131-.6896.1859-.9519.9532-1.4444 1.4062-.19.1745-.131.3362.1016.3936.4275.1053.8286.0501 1.1836-.2774.12-.1107.2371-.2284.4072-.2353.4034-.0157.8066-.1042 1.21.0029.1097.0292.1967.0272.2666-.1181.125-.2602.3338-.4185.5615-.5567.1406-.0851.3032-.1807.3623-.3711-.6152-.2615-1.221.1974-1.8398-.04.3634-.4551.7745-.7375 1.2822-.8496.5719-.1265 1.1488-.2517 1.7051-.4473.5486-.1929 1.0762-.3644 1.6406-.0957.1779.0847.3675.1067.5732.1152.338.0139.7627-.0281.9532.4707.048.1255.1725.1438.2724.1788.8744.3081 1.3779 1.1455 1.9727 1.8515l.0019.001c.1497.1776.0828.2373-.1093.2598-.3035.0354-.6053-.0132-.9082-.0078-.8463.0152-1.6899-.0834-2.5254-.253-.1179-.0238-.2307-.0002-.3428.0742-.2568.1709-.5252.3184-.7852.4834-.115.0725-.2266.0883-.3398.0176-.3738-.2337-.801-.2436-1.1963-.3857-.2285-.0825-.4475-.0719-.6523.0752-.2784.1996-.5639.1761-.8575.0586-.4611-.1846-.8888.2073-1.3486.1132-.0461-.0094-.1109.0944-.166.1465-.4585.4333-.9491.6705-1.5322.336-.0211-.0117-.0465-.0134-.0694-.0205-.5293-.1687-.9951.046-1.4101.3837-.4008.3262-.4616.358-.8731.0215-.3398-.2776-.8224-.2991-1.1357-.0097-.2634.244-.6514 1.4631-.6514 2.2988 0 .0634-.0046.1218-.0107.1758l.6513 12.5195h-3.5683l.6689-12.8603c-.0621-.6681-.6297-1.8471-2.2685-3.8086-.2887-.3453-.7389-.5134-.8496-1.0704-.0346-.1726-.2475-.242-.4043-.3125-.0888-.0394-.1979-.0514-.2647-.1191-.4679-.4739-.933-.291-1.374.0283-.1972.143-.3596.1544-.5635.0674-.2783-.1184-.5538-.3254-.8496-.2949-.885.0914-1.6512-.2744-2.4121-.7197-.2698-.1584-.4659-.3426-.5703-.6866-.1385-.4566-.4344-.6111-.8526-.499-.1519.0408-.3191.1139-.4531.0166-.3133-.2274-.6977-.1691-1.0146-.3691-.1206-.0758-.2443-.0288-.377.0049-.3244.0826-.5698.4384-.9072.4052-.38-.0366-.6778.2774-1.0488.2559-.121-.0065-.2455.2922-.3575.1377-.1079-.1493.1084-.2952.1651-.4512.0125-.0336.0194-.0708.0342-.125l-.4961.0303c.384-.6033.7153-1.16383 1.2441-1.53614.268-.1884.6283-.20642.8242-.44727.2049-.25166.4201-.31726.6729-.37109.6045-.12913 1.2251-.12252 1.8252-.29199.0856-.02378.249-.00649.2168-.12891-.091-.34619.1568-.37129.3007-.49902.104-.09197.259-.11548.3096-.26172-.6997-.53828-1.379-.07562-2.0244.08008-.6083.14668-1.2221.26935-1.8613.43847.0403-.09465.0613-.15877.0918-.21484.29-.53803.7726-.86659 1.1074-1.36524.1084-.16145.1149-.39104.2852-.50097.74-.47865 1.4535-1.03254 2.3437-1.06934.0551-.00224.1226-.02521.1611-.06738.2057-.22485.4848-.30501.7061-.49317.2299-.19558.612-.28259.7012-.51855.1859-.49209.5806-.60674.8759-.89258.3698-.35841.841-.53064 1.1924-.94824.3936-.46743.9368-.64255 1.4971-.74707.7246-.135 1.4625-.284645 2.1074-.702149zm5.4922 7.138669c-.1452-.02513-.3685-.14892-.4219-.0166-.1229.30622-.5237.48862-.4131.86621.1904.64979-.0833 1.15668-.2939 1.68364-.1187.2972-.306.5591-.4668.833-.0462.0789-.0974.1673-.165.2158-.6598.471-.9077 1.1834-.9454 2.0469-.0184.4241-.0774.8526-.1669 1.2646-.2358 1.0819.0724 2.1.2167 3.2129.4278-.4924.6283-1.0032.6924-1.5996.0628-.584.1959-1.1475.4366-1.6719.0317-.0699.0627-.157.0556-.2314-.0318-.3337.1296-.5049.3594-.6426.2694-.1615.4661-.3746.4043-.7832-.0368-.2427.1202-.3791.2851-.4746.1323-.0767.2463-.145.2588-.3477.035-.5634.0933-1.1251.1202-1.6885.0165-.34657-.0534-.6871-.1582-1.01265-.1655-.51274-.0726-.95481.2802-1.31055.1984-.19995.1791-.2998-.0781-.34375zm4.3857 3.02635c-.3218-.2534-.5899-.0595-.831.167-.1762.1655-.3703.2733-.586.3936.464-.0543.9793-.529 1.3213.2578-.1349.0673-.2444.2222-.4287.2002-.1022-.0121-.1744-.0257-.1377.1699.033.175-.1402.1149-.2011.0889-.2541-.1089-.5107-.0386-.7657-.0498-.1963-.0086-.35.0631-.4589.2529-.1506.262-.3468.2596-.5596.126-.3057-.1916-.5745-.3-.878.0683-.1591.1931-.4381.2671-.6728.3594-.2652.1045-.3847.3014-.3779.6162.0057.2676-.0852.463-.2774.6289-.58.5011-.5705 1.2517-.6113 2.0879.2649-.3194.5139-.4676.7959-.5986.381-.1776.6893-.1379 1.0049.1133.254.2025.4987.1668.7734.0332.4102-.1992.7662-.5223 1.2422-.586.2779-.0373.5077-.3633.665-.6553.1986-.3671.4608-.6259.7852-.8173.2779-.1638.4659-.4097.5703-.7569.1192-.3964.2923-.7567.6328-.9658.061-.0372.15-.0871.1289-.1777-.0631-.2685.0233-.5038.0869-.749.0229-.0884.034-.2067-.0722-.2461-.1286-.0475-.2898-.0511-.374.0498-.1887.2256-.4623.1927-.6739.3505-.1075.0803-.2947.1085-.4345-.0664.1035-.1419.2868-.0836.3652-.2334-.0098-.021-.0161-.0494-.0313-.0615zm5.2989 4.4795c-.246.148-.5369.0572-.7901.209.2667.2678.4395.2244.7901-.209zm-16.8037-8.24413c-.1762-.04395-.3735-.08846-.4707.2334-.0812.26871-.3273.16178-.504.125-.1464-.03053-.2747-.09149-.3701.10352-.0954.19393-.1668.02438-.2519-.0254-.1254-.07377-.2669-.01999-.3086.1045-.0399.11881.1069.14858.1894.18847.0538.02647.1131.04026.1709.05371.2923.06908.6299-.06362.8643.02832.267.10448.5134.24641.8037.2295.1963-.01167.3104.11005.3857.2998.13.32791.223.66904.2207 1.03418-.0017.27693.0663.54441.2354.71484.3743.37679.3991.88199.4453 1.38579.0153.1641.0302.335.0078.4961-.1071.7768.26 1.3945.4971 2.0556.0632.1768.2257.2392.3418.3545.3536.3512.6324.779.956 1.2002-.1111-.6431.1359-1.2402.0245-1.8945-.0874-.5145-.1813-1.0015-.3682-1.4756-.0789-.2001-.1275-.4831-.0303-.6445.3713-.6167-.1568-1.119-.1201-1.68462.0035-.05114-.0555-.13005-.1025-.15918-.3347-.20808-.4313-.56223-.46-.96484-.0148-.20937-.0945-.34344-.2861-.41211-.3546-.12695-.6624-.37125-.9766-.59375-.0381-.02688-.1053-.05021-.1084-.08203-.0547-.55034-.4467-.58567-.7851-.6709zm15.663 8.02833c-.1315-.0486-.2243.0461-.3027.1523-.0187.0254-.0304.0907-.0166.1094.0771.1062.1917.1125.293.0879.2111-.0516.4175-.1274.626-.1934-.2076-.0417-.4056-.084-.5997-.1562zm-.6464-.2627c-.1416.0023-.2831.0162-.3838.0225-.259.0605-.4919-.055-.7012.0888-.091.0628-.208.1444-.1641.2803.0489.1496.1903.1817.2969.0908.2944-.2511.6098-.2312.9414-.1572.1358.0305.3-.0302.2969-.2002-.0034-.1775-.1755-.1268-.2861-.125zm-16.8926-4.5342c-.2469.0554-.4637-.2513-.7608-.15623-.2133.06812-.4454.06024-.6425.20993-.0489.0373-.1052.0683-.1621.084-.7069.1965-1.4118.1869-2.1241-.0127.0462-.148.2136-.0621.2481-.25096-.4056.12456-.8323.01644-1.1895.33786-.0314-.30322-.4238-.45052-.7187-.25583-.1107.07303-.2275.13863-.3399.20903-.1013.0637-.2239.083-.4345.1552.562.3028 1.0184.6196 1.6005.4121.5307-.1897 1.098.1675 1.2618.7881.0399.1512.107.2515.2177.3018.6121.2772 1.1784.6815 1.9034.5566.381-.0655.7989.1183 1.1718.2959.2599.1237.4828.1247.6983-.0752.5433-.5037 1.1023-.3847 1.6689-.0703.094.0521.1778.1419.3076.1123-.2115-.8271-.5456-1.5492-1.1699-2.0224-.4616-.3499-.9073-.75935-1.5351-.6182zm7.2265-2.34569c-.1264.38363-.3891.63834-.6005.94043-.126.18033-.2394.38058-.0498.60352.0475.05607.0616.119.0195.18359-.2204.33866-.2618.79185-.5625 1.08695-.6144.6028-.6723 1.3389-.2901 2.1933.2112-.4701.3986-.9123.6075-1.3398.1515-.3104.2636-.6347.6289-.7666.368-.1328.9372-1.50909.8808-1.9385-.0278-.20814-.2828-.59998-.6338-.96289zm5.2373 2.20118c-.2121-.25848-.684-.23792-.8964.02832-.2712.33999-.6863.43109-.9737.74509-.0255.0273-.0604.044-.0908.0655-.2106.1502-.4404.3512-.3476.6445.0874.2768.3996.2939.6787.4336.1149-.3675.5325-.2175.6777-.5166.1205-.2484.2955-.3293.4863-.4356.233-.13.4579-.2633.5401-.6035.0399-.166.0069-.26218-.0743-.36131zm-1.748-.67481c-.3263.2502-.7437.36254-1.1367.54688-.0607.0288-.0582.10979-.0645.17968-.0457.52076-.0965 1.04076-.1386 1.56156-.0068.0847-.0561.2131.0517.25.1133.0385.1941-.0766.2041-.1787.0681-.7003.4861-1.0483.959-1.3731.1874-.1283.307-.37923.5352-.46581.098-.03722.216-.10123.1992-.25293-.0166-.15028-.144-.16494-.2471-.19141-.1039-.02688-.21-.04434-.3623-.07617zm7.3516 1.91212c-.5357.2503-1.139-.1724-1.667.2353.4289.441 1.359.2927 1.667-.2353zm-2.9346-.4336c-.1362-.018-.3707.5502-.3125.7187.0471.1351.1451.1573.2012.0254.095-.2231.171-.1756.3252-.0586.2809.2127.4664-.1952.7285-.2119.1215-.0076.2366-.1522.3926-.2617-.4573-.2153-.9051-.1513-1.335-.2119zm-13.8428-1.70996c.1851 1.10166 1.0571 1.51196 1.543 2.29686.0354-.6037-.0883-1.1005-.5947-1.36425-.1317-.0686-.2759-.14943-.2969-.33008-.0543-.46761-.395-.46398-.6514-.60253zm16.0518 1.63276c-.288-.1286-.5693-.1772-.8506.0059.3423.261.6063.2613.8506-.0059zm2.3857-.2167c-.2828.0214-.572-.2543-.7656.1826-.0463.1039-.1701.0643-.2637.0576-.1133-.0081-.2345-.066-.3291.0635.5316.1937.9393.1098 1.3584-.3037zm-14.2392-2.21001c-.1056-.03182-.2093-.07642-.2871.05762-.065.11215-.1517.21685-.0723.37207.1151.22557.1135.4695.0723.71972-.0671.40977.0972.7418.2773 1.0889.3289-.3355.6133-.67415.5215-1.23245-.0089-.05201.0054-.10938.0117-.16406.0726-.62486.0417-.6727-.5234-.8418zm-6.377 1.25293c-.6075-.1231-.9026.33136-1.2978.66508.6081.1919.8444-.39402 1.2978-.66508zm10.9063-1.66699c-.3585-.06099-1.0289.73627-.9541 1.14551.0246.13499.0788.28848.2392.12988.0991-.09779.2081-.17435.291.00683.0726.15836-.0326.21185-.1416.26075-.0515.02334-.0961.07819-.0576.23242.2392-.24289.5145-.3175.7783-.42774.1385-.05786.2985-.11382.2784-.3623-.0054-.06123.0706-.18896.1093-.18945.3353.00448.5867-.28522.9014-.33008.06-.00818.1297.06713.165-.04883.0363-.1201-.0281-.21431-.1074-.21582-.2599-.00404-.4739-.24348-.7812-.10156-.1976.09102-.4779-.05827-.7207-.09961zm-5.5274-.76758c-.0136-.07014-.1074-.06807-.1562-.03223-.1074.07927-.0234.11375.0322.16699.0672.06505.0392.15252-.0029.22071-.0524.08418-.106.05902-.1797.01074-.1834-.12022-.1644.11203-.2119.19727-.073.13181-.0257.24468.1132.26171.2816.03469.3395.25401.335.52344-.0054.34044.0933.60808.4209.76465-.3274-.48791-.1868-.86451.1309-1.23047.141-.16181.0486-.33227-.083-.45605-.1399-.13189-.3492-.17017-.3985-.42676zm-3.8633 1.08496c-.0793.00404-.1792-.02832-.207.09863-.0311.14316.0794.15722.1533.16797.4419.06422.8067.38062 1.2324.49903.1502.04172.3202.15478.4327.00585.1199-.15913.0001-.3584-.043-.53906-.0542-.22968-.1888-.20733-.3838-.14453-.3603-.10845-.7719-.10851-1.1846-.08789zm5.668-1.39941c-.2452.08568-.5153.18021-.7852.27441-.0559.01926-.145.04885-.1035.12207.1264.22105.0408.41335-.0215.61914-.0448.14759.0563.19933.1504.22266.2636.06594.5354.1405.795.16113.2261.01825.3982-.34485.4365-.5459.0439-.23013.0013-.56318-.1914-.78613-.0771-.08879-.1571-.11535-.2803-.06738zm1.9844.86425c-.1966.01569-.3555.00319-.4063.21485-.0148.06056.0337.17591.1153.17187.1924-.00915.2067-.1993.291-.38672zm-4.4434-.73144c.0417-.14445-.4654-.42994-.6465-.37207-.0923.02959-.1984.06032-.1211.21582.0695.22025-.4593.2485-.125.5625.1743.16365.4051.51551.5235.41601.1945-.16505.2831-.52577.3691-.82226zm12.291.1875c-.3482-.3121-.7463-.12614-1.1259-.12793-.1432-.00019-.2206.14874-.2022.2832.0167.12135.1483.10533.2442.09278.3687-.04799.7362-.10455 1.0839-.24805zm-19.1386-.23242c-.393-.16007-.7308-.00296-1.1094.10156.5426.34343.7728.32037 1.1094-.10156zm11.4023-.55664c-.0968-.27833-.3629-.42333-.5703-.29493-.2407.1489-.4386.12123-.6631.0459-.0789-.02646-.1495-.01967-.1728.07813-.0224.09271.0496.09874.1074.11621.3142.096.345.3377.2002.67773.3159-.05875.5445-.32745.8623-.20019.0789.0314.3103-.20977.2363-.42285zm-5.5967.10449c-.2214-.37368-.4068-.17107-.6377-.00195.2322.10721.4176.02528.6377.00195zm6-.6543c-.1233-.02025-.3181.10247-.3105.34082.0063.19531.1281.24144.3037.22266.0972-.15695.4119.05011.418-.22754.0035-.17585-.2534-.30992-.4112-.33594zm1.3213-.00195c-.3388-.196-.6666-.02956-1.0342-.00488.337.22422.8181.21732 1.0342.00488zm-2.5488-1.6084c-.2483-.21532-.4439-.2834-.669-.21387.1941.07178.3633.26322.669.21387zm5.0742-.51855c-.3967.29326-.7938-.02694-1.2295.02734.0484.06998.0941.17229.1192.16601.4549-.11511.8414.42061 1.3125.17481.1246-.06456.3794.2851.3964-.08594.0108-.23276-.3121-.14831-.4619-.2666-.034-.02692-.1058-.0385-.1367-.01562zm-5.8965.31152c-.1712-.30538-.3778-.42077-.7099-.14942.2845.0601.4975.10457.7099.14942zm2.503-.62207c-.2076-.29549-.4532-.23952-.753-.12695.2609.24534.5217.05122.753.12695z" fill-rule="evenodd"/><path d="m43.8416 19.2231c.4587-.6457 1.0874-1.1809 1.886-1.6057.8156-.4417 1.7416-.6626 2.7781-.6626 1.2063 0 2.2938.2973 3.2623.892.9854.5947 1.7585 1.4443 2.3192 2.5487.5777 1.0874.8666 2.3533.8666 3.7975 0 1.4443-.2889 2.7271-.8666 3.8485-.5607 1.1044-1.3338 1.9625-2.3192 2.5742-.9685.6116-2.056.9175-3.2623.9175-1.0365 0-1.954-.2124-2.7526-.6372-.7816-.4248-1.4188-.96-1.9115-1.6056v8.7419h-3.5682v-20.8481h3.5682zm7.4676 4.9699c0-.8496-.1784-1.5802-.5352-2.1919-.3399-.6286-.7986-1.1044-1.3763-1.4272-.5607-.3228-1.1724-.4843-1.8351-.4843-.6456 0-1.2573.17-1.835.5098-.5607.3228-1.0195.7986-1.3763 1.4272-.3398.6287-.5097 1.3678-.5097 2.2174 0 .8495.1699 1.5887.5097 2.2173.3568.6287.8156 1.1129 1.3763 1.4528.5777.3228 1.1894.4842 1.835.4842.6627 0 1.2744-.1699 1.8351-.5097.5777-.3398 1.0364-.8241 1.3763-1.4528.3568-.6286.5352-1.3762.5352-2.2428z"/><path d="m31.1013 16.9804c1.7331 0 3.1264.5352 4.1798 1.6057 1.0705 1.0534 1.6057 2.5317 1.6057 4.4347v8.2832h-3.5682v-7.799c0-1.1044-.2803-1.9455-.841-2.5232-.5607-.5947-1.3253-.892-2.2938-.892s-1.7416.2973-2.3193.892c-.5607.5777-.8411 1.4188-.8411 2.5232v7.799h-3.5681v-7.799c0-1.1044-.2804-1.9455-.8411-2.5232-.5607-.5947-1.3253-.892-2.2938-.892-.9855 0-1.7671.2973-2.3448.892-.5607.5777-.8411 1.4188-.8411 2.5232v7.799h-3.5681v-14.1197h3.5681v1.7076c.4588-.5947 1.045-1.0619 1.7586-1.4018.7307-.3398 1.5292-.5097 2.3958-.5097 1.1044 0 2.0899.2379 2.9565.7136.8665.4588 1.5377 1.1215 2.0134 1.988.4588-.8156 1.1214-1.4697 1.988-1.9625.8835-.4927 1.835-.7391 2.8545-.7391z"/><path d="m3.56814 16.3942v4.4602h5.98939v2.829h-5.98939v4.7151h6.75396v2.9054h-10.3221v-17.8152h10.3221v2.9055z"/></g></svg>